<svg xmlns="http://www.w3.org/2000/svg" version="1.1" xmlns:xlink="http://www.w3.org/1999/xlink" xmlns:svgjs="http://svgjs.com/svgjs" id="Pattern1094SvgRootPreview" width="100%" height="100%"><defs><pattern x="0" y="0" width="1.9451219512195121" height="1.9451219512195121" patternUnits="userSpaceOnUse" id="Pattern1094Layer1" viewBox="0 0 1.9451219512195121 1.9451219512195121" preserveAspectRatio="xMidYMid slice"><g id="PatternRootContent1" transform="scale(1.9451219512195121) rotate(0)"><g id="Pattern1094Layer1background"><rect width="1" height="1" id="Pattern1094Background1" class="color_1 fill_color_1" fill="#f2bb77"></rect></g></g></pattern><pattern x="0" y="0" width="319" height="552.4146341463414" patternUnits="userSpaceOnUse" id="Pattern1094Layer2" patternTransform="matrix(0.5,0,0,0.5,0,0)" viewBox="0 0 319 552.4146341463414" preserveAspectRatio="xMidYMid slice"><g id="PatternRootContent2" transform="scale(1.9451219512195121) rotate(0)"><g id="Pattern1094Layer2Element3"><use xlink:href="#Pattern1094Element3" x="69.45137023925781" y="-156" transform="translate(164, -71) scale(1) translate(-164, 71) rotate(90, 164, -71)"></use><use xlink:href="#Pattern1094Element3" x="-94.54862976074219" y="-156" transform="translate(0, -71) scale(1) translate(0, 71) rotate(90, 0, -71)"></use><use xlink:href="#Pattern1094Element3" x="-12.548629760742188" y="-14" transform="translate(82, 71) scale(1) translate(-82, -71) rotate(90, 82, 71)"></use><use xlink:href="#Pattern1094Element3" x="-176.5486297607422" y="-14" transform="translate(-82, 71) scale(1) translate(82, -71) rotate(90, -82, 71)"></use><use xlink:href="#Pattern1094Element3" x="151.4513702392578" y="-14" transform="translate(246, 71) scale(1) translate(-246, -71) rotate(90, 246, 71)"></use><use xlink:href="#Pattern1094Element3" x="69.45137023925781" y="128" transform="translate(164, 213) scale(1) translate(-164, -213) rotate(90, 164, 213)"></use><use xlink:href="#Pattern1094Element3" x="-94.54862976074219" y="128" transform="translate(0, 213) scale(1) translate(0, -213) rotate(90, 0, 213)"></use><use xlink:href="#Pattern1094Element3" x="-12.548629760742188" y="270" transform="translate(82, 355) scale(1) translate(-82, -355) rotate(90, 82, 355)"></use><use xlink:href="#Pattern1094Element3" x="-12.548629760742188" y="270" transform="translate(82, 355) scale(1) translate(-82, -355) rotate(90, 82, 355)"></use></g></g></pattern><symbol id="Pattern1094Element3"><g class="color_4 fill_color_4" fill="#d9918b"><g><path d="M97.549,119.47371673583984c0,-7.72,-6.28,-14,-14,-14l0,4c5.51,0,10,4.49,10,10s-4.49,10,-10,10l0,4c7.72,0,14,-6.28,14,-14Zm8,0C105.549,107.344,95.679,97.474,83.549,97.47371673583984l0,4c9.92,0,18,8.08,18,18s-8.08,18,-18,18l0,4c12.13,0,22,-9.87,22,-22Z"></path><path d="M110.37,152.07179260253906c6.685,3.86,15.264,1.561,19.124,-5.124l-3.464,-2c-2.755,4.772,-8.888,6.415,-13.66,3.66s-6.415,-8.888,-3.66,-13.66l-3.464,-2c-3.86,6.686,-1.561,15.264,5.124,19.124Zm-4,6.928C116.874,165.065,130.357,161.453,136.422,150.94744873046875l-3.464,-2c-4.96,8.591,-15.997,11.548,-24.588,6.588s-11.548,-15.997,-6.588,-24.588l-3.464,-2c-6.065,10.505,-2.452,23.988,8.053,30.053Z"></path><path d="M75.729,146.8756561279297c-6.686,3.86,-8.985,12.439,-5.125,19.124l3.464,-2c-2.755,-4.772,-1.112,-10.905,3.66,-13.66s10.905,-1.112,13.66,3.66l3.464,-2c-3.86,-6.686,-12.439,-8.984,-19.124,-5.124Zm-4,-6.928C61.224,146.013,57.611,159.496,63.676,170l3.464,-2c-4.96,-8.591,-2.003,-19.628,6.588,-24.588s19.628,-2.003,24.588,6.588l3.464,-2c-6.065,-10.505,-19.548,-14.118,-30.053,-8.053Z"></path></g><g><path d="M66.193,104.83488464355469c6.686,-3.86,8.985,-12.439,5.125,-19.124l-3.464,2c2.755,4.772,1.112,10.905,-3.66,13.66s-10.905,1.112,-13.66,-3.66l-3.464,2c3.86,6.686,12.439,8.984,19.124,5.124Zm4,6.928C80.698,105.698,84.311,92.215,78.246,81.71052551269531l-3.464,2c4.96,8.591,2.003,19.628,-6.588,24.588s-19.628,2.003,-24.588,-6.588l-3.464,2c6.065,10.505,19.548,14.118,30.053,8.053Z"></path><path d="M44.373,132.2372283935547c0,7.719,6.28,14,14,14l0,-4c-5.51,0,-10,-4.49,-10,-10s4.49,-10,10,-10l0,-4c-7.72,0,-14,6.28,-14,14Zm-8,0C36.373,144.366,46.243,154.237,58.373,154.23675537109375l0,-4c-9.92,0,-17.999,-8.08,-17.999,-18s8.08,-17.999,18,-17.999l0,-4c-12.13,0,-22,9.871,-22,22.001Z"></path><path d="M31.553,99.63916778564453c-6.686,-3.86,-15.265,-1.562,-19.125,5.124l3.464,2c2.755,-4.772,8.888,-6.416,13.66,-3.66s6.416,8.888,3.66,13.66l3.464,2c3.86,-6.686,1.561,-15.264,-5.124,-19.124Zm4,-6.928C25.048,86.646,11.564,90.259,5.5,100.76314544677734l3.464,2c4.96,-8.591,15.997,-11.549,24.588,-6.589s11.549,15.997,6.589,24.588l3.464,2c6.065,-10.505,2.453,-23.988,-8.052,-30.053Z"></path></g><g><path d="M63.194,70.36116790771484c6.685,3.86,15.264,1.561,19.124,-5.124l-3.464,-2c-2.755,4.772,-8.888,6.415,-13.66,3.66s-6.415,-8.888,-3.66,-13.66l-3.464,-2c-3.86,6.686,-1.561,15.264,5.124,19.124Zm-4,6.928C69.698,83.354,83.181,79.742,89.246,69.23680877685547l-3.464,-2c-4.96,8.591,-15.997,11.548,-24.588,6.588s-11.548,-15.997,-6.588,-24.588l-3.464,-2c-6.065,10.505,-2.452,23.988,8.053,30.053Z"></path><path d="M28.552,65.16543579101562c-6.685,3.859,-8.984,12.439,-5.124,19.124l3.464,-2c-2.755,-4.772,-1.112,-10.905,3.66,-13.66s10.905,-1.112,13.66,3.66l3.464,-2c-3.86,-6.686,-12.439,-8.984,-19.124,-5.124Zm-4,-6.928C14.048,64.302,10.435,77.784,16.5,88.28931427001953l3.464,-2c-4.96,-8.591,-2.002,-19.628,6.589,-24.588s19.628,-2.002,24.588,6.589l3.464,-2c-6.065,-10.505,-19.548,-14.117,-30.053,-8.052Z"></path><path d="M50.373,37.76352310180664c0,-7.72,-6.28,-14.001,-14,-14l0,4c5.51,0,10,4.489,10,10s-4.489,10,-10,10l0,4c7.72,0,14,-6.28,14,-14Zm8,0C58.373,25.633,48.502,15.763,36.373,15.763141632080078l0,4c9.92,0,18,8.079,18,17.999s-8.079,18,-17.999,18l0,4c12.13,0,22.001,-9.87,22.001,-22Z"></path></g><g><path d="M91.549,50.526283264160156c0,7.72,6.28,14,14,14l0,-4c-5.51,0,-10,-4.49,-10,-10s4.49,-10,10,-10l0,-4c-7.72,0,-14,6.28,-14,14Zm-8,0C83.549,62.656,93.419,72.526,105.549,72.52628326416016l0,-4c-9.92,0,-18,-8.08,-18,-18s8.08,-18,18,-18l0,-4c-12.13,0,-22,9.87,-22,22Z"></path><path d="M78.728,17.928203582763672c-6.685,-3.86,-15.264,-1.561,-19.124,5.124l3.464,2c2.755,-4.772,8.888,-6.415,13.66,-3.66s6.415,8.888,3.66,13.66l3.464,2c3.86,-6.686,1.561,-15.264,-5.124,-19.124Zm4,-6.928C72.224,4.935,58.741,8.547,52.676,19.05255889892578l3.464,2c4.96,-8.591,15.997,-11.548,24.588,-6.588s11.548,15.997,6.588,24.588l3.464,2c6.065,-10.505,2.452,-23.988,-8.053,-30.053Z"></path><path d="M113.369,23.124351501464844c6.686,-3.86,8.985,-12.439,5.125,-19.124l-3.464,2c2.755,4.772,1.112,10.905,-3.66,13.66s-10.905,1.112,-13.66,-3.66l-3.464,2c3.86,6.686,12.439,8.984,19.124,5.124Zm4,6.928C127.874,23.987,131.487,10.504,125.422,-2.2737367544323206e-13l-3.464,2c4.96,8.591,2.003,19.628,-6.588,24.588s-19.628,2.003,-24.588,-6.588l-3.464,2c6.065,10.505,19.548,14.118,30.053,8.053Z"></path></g><g><path d="M122.904,65.16512298583984c-6.686,3.86,-8.985,12.439,-5.125,19.124l3.464,-2c-2.755,-4.772,-1.112,-10.905,3.66,-13.66s10.905,-1.112,13.66,3.66l3.464,-2c-3.86,-6.686,-12.439,-8.984,-19.124,-5.124Zm-4,-6.928C108.399,64.302,104.786,77.785,110.851,88.28948211669922l3.464,-2c-4.96,-8.591,-2.003,-19.628,6.588,-24.588s19.628,-2.003,24.588,6.588l3.464,-2c-6.065,-10.505,-19.548,-14.118,-30.053,-8.053Z"></path><path d="M144.724,37.76277160644531c0,-7.719,-6.28,-14,-13.999,-14l0,4c5.51,0,10,4.49,10,10s-4.49,10,-10,10l0,4c7.72,0,14,-6.28,14,-14Zm8,0C152.724,25.634,142.855,15.763,130.724,15.763253211975098l0,4c9.92,0,17.999,8.08,17.999,18s-8.08,17.999,-18,17.999l0,4c12.13,0,22,-9.871,22,-22.001Z"></path><path d="M157.545,70.36083221435547c6.685,3.86,15.265,1.562,19.124,-5.124l-3.464,-2c-2.755,4.772,-8.888,6.416,-13.66,3.66s-6.416,-8.888,-3.66,-13.66l-3.464,-2c-3.86,6.686,-1.561,15.264,5.124,19.124Zm-4,6.928C164.05,83.354,177.533,79.741,183.597,69.23686218261719l-3.464,-2c-4.96,8.591,-15.997,11.549,-24.588,6.589s-11.549,-15.997,-6.589,-24.588l-3.464,-2c-6.065,10.505,-2.453,23.988,8.052,30.053Z"></path></g><g><path d="M125.904,99.63883972167969c-6.686,-3.86,-15.265,-1.561,-19.125,5.124l3.464,2c2.755,-4.772,8.888,-6.415,13.66,-3.66s6.415,8.888,3.66,13.66l3.464,2c3.86,-6.686,1.561,-15.264,-5.124,-19.124Zm4,-6.928C119.399,86.646,105.916,90.258,99.851,100.76319885253906l3.464,2c4.96,-8.591,15.997,-11.548,24.588,-6.588s11.548,15.997,6.588,24.588l3.464,2c6.065,-10.505,2.452,-23.988,-8.053,-30.053Z"></path><path d="M160.545,104.8345718383789c6.685,-3.859,8.984,-12.439,5.124,-19.124l-3.464,2c2.755,4.772,1.112,10.905,-3.66,13.66s-10.905,1.112,-13.66,-3.66l-3.464,2c3.86,6.686,12.439,8.984,19.124,5.124Zm4,6.928C175.049,105.698,178.663,92.216,172.597,81.710693359375l-3.464,2c4.96,8.591,2.002,19.628,-6.589,24.588s-19.628,2.002,-24.588,-6.589l-3.464,2c6.065,10.505,19.548,14.117,30.053,8.052Z"></path><path d="M138.724,132.23648071289062c0,7.72,6.28,14.001,14,14l0,-4c-5.51,0,-10,-4.489,-10,-10s4.489,-10,10,-10l0,-4c-7.72,0,-14,6.28,-14,14Zm-7.999,0C130.725,144.367,140.595,154.237,152.724,154.2368621826172l0,-4c-9.92,0,-18,-8.079,-18,-17.999s8.079,-18,17.999,-18l0,-4c-12.13,0,-22.001,9.87,-22.001,22Z"></path></g></g></symbol></defs><rect width="100%" height="100%" id="Pattern1094RctLayer1" fill="url(#Pattern1094Layer1)"></rect><rect width="100%" height="100%" id="Pattern1094RctLayer2" fill="url(#Pattern1094Layer2)"></rect></svg>